<svg xmlns="http://www.w3.org/2000/svg" viewBox="0 0 364.71 255.61"><defs><style>.cls-1{fill:#fff;}.cls-2{fill:#f8c243;}</style></defs><title>logo_white</title><g id="Capa_2" data-name="Capa 2"><g id="Capa_1-2" data-name="Capa 1"><path class="cls-1" d="M109.27,220.44c-28.47-19.67-46.75-46-52.72-80.44A158.8,158.8,0,0,1,54,119.17c-.33-8.3-.63-8.34-8.69-7.59-4,.37-7.94,1-11.91,1.45-8.69,1.07-17.33,1-25.8-1.47-3.62-1-7.09-2.6-7.55-7-.41-3.84,2.15-6,5.05-8a41.65,41.65,0,0,1,19.49-7.23c21.59-2,43.24-3.82,64.9-3.29,25.69.62,51.37-.35,77.05.11,44,.79,88.16-.85,132,3.63,16.11,1.64,32.39.54,48.35,3.76,5.65,1.14,11.16,2.26,15.06,6.94,4.47,5.36,3.62,9-3,11.24-7.3,2.53-15,3.22-22.66,3.6-7.33.36-14.68.55-22,.38-4.27-.1-5.78,1.54-6.19,5.66-1,10.26-2.14,20.45-4.68,30.57-3.68,14.7-8.75,28.63-16.72,41.5a9.79,9.79,0,0,1-1.89,2.34h0c-1.68,1.76-2.21,4.44-4.52,5.7l.2-.18a2.9,2.9,0,0,1-2,2.29l.16-.16a3.7,3.7,0,0,1-2.1,2.21l.07-.12c-2.54,5.47-5.31,10.67-12.32,11.25-9.3-7.82-12.36-7.9-22.4-.61a79.57,79.57,0,0,0-6.17,5.08c-4.6,4.1-7.81,3.73-10.65-2.26-4.46-9.41-6.85-9.81-15.7-3.91-1.39.92-2.72,1.92-4,3-10.37,8.35-10.47,8.41-17.7-2.51-3.68-5.56-7.93-5.9-12.35-1.54-5.7,5.62-9.94,8.66-16.51,0-5.44-7.19-13.22-3-18.49,1.74-6.24,5.57-10,6.88-13.59-2.31-2-5.07-5.82-4.37-9.26-.3C115,215.91,115,221.36,109.27,220.44Z"/><path class="cls-1" d="M190.11,11.09c14.14,2,27.53,2.15,40.57,5.06A65.86,65.86,0,0,1,251.08,24c9.37,5.73,19.35,10.51,28.49,16.55,11.28,7.45,17.86,18.58,21.3,31.53,1,3.93-.13,6.25-4.86,6.3-21,.24-41.95,3-62.9-.37a21.27,21.27,0,0,0-4-.23c-37.32,1.14-74.68-1.73-112,1.26-11.94,1-24,.31-36,.62-8.62.22-17.23.83-27.74,1.36,6-9.57,10.84-18.37,17.25-26.24C79.91,43.38,92,36.17,105.53,30.63c22.34-9.12,45.16-16.11,69.21-18.64,3.11-.33,5.14-.72,4.19-4.62-.26-1.08.46-2.61,1.14-3.68,1.74-2.75,4.41-4.33,7.61-3.46s3.4,3.72,3,6.55C190.53,8.09,190.35,9.39,190.11,11.09Z"/><path class="cls-2" d="M109.27,220.44c3.94-2.06,4.18-6.61,6.55-9.77,4.9-6.51,9.68-6.14,13.56,1.16,1.22,2.29.15,5.43,3.43,7.51,3.17-3.58,6.5-7.12,11.08-9.27,9.59-4.51,16.74-2.91,19.64,6a16.3,16.3,0,0,0,1.82,2.94c3.62-1.31,5.28-4.78,7.85-7.1,7.69-7,12.53-6.15,17,3.07,1.29,2.69,2.42,5.45,3.6,8.15,4,.71,5.23-2.66,7.26-4.56,4.18-3.91,8.58-7.51,13.89-9.64,5.88-2.36,9.61-.46,11.44,5.65.66,2.21.67,4.63,2,6.64a9.35,9.35,0,0,0,1.45,1.38c3.6-1.26,5.43-4.76,8.4-6.84a95.46,95.46,0,0,1,8.32-5.55c9.08-5,13.26-3.58,17.91,5.83,2.21-3.82,0,8.23,3.65,1,2.51-5,8-6,13.13-6.91a1.9,1.9,0,0,0,1.6-.38c1.18-1,2.94-.66,4.07-1.76l-.07,0c1.17-1.31,3-1,4.39-1.92,12.31-2.55,18,.17,14.76,17.06-1.9,9.9-7.94,18.37-9.43,28.38-.36,2.4-2.41,3.23-4.33,3.55a50.67,50.67,0,0,1-8,.42c-16.36.07-32.71,0-49.07.16-31,.23-62-2.48-93-1.77-12,.27-24-.35-36,1.45A16.5,16.5,0,0,1,90.83,250a80.5,80.5,0,0,1-16.46-24.87c-1.29-3.06-2.34-6.41.64-9.3,2.78-2.7,6.17-2.22,9.43-1.48a18.78,18.78,0,0,1,8.7,4.74c3.52,3.3,8,4.94,12.38,6.33C110.69,227.08,110.1,223.69,109.27,220.44Z"/><path class="cls-1" d="M345.35,104.92a11.37,11.37,0,0,1-9.27,4.29c-7.32.24-14.65.36-22,.41-2.74,0-5.46-.15-5.26-4.16.16-3,1.07-5.21,4.5-5.38C324,99.55,334.43,100.08,345.35,104.92Z"/><path class="cls-1" d="M51.66,99.51c-12.39,5.45-25.23,4.09-39.41,3.8C19.46,97,37.9,95.29,51.66,99.51Z"/></g></g></svg>