<svg xmlns="http://www.w3.org/2000/svg" viewBox="0 0 332.42 253.06"><defs><style>.cls-1{fill:#fff;}.cls-2{fill:#f6f3f2;}.cls-3{fill:#0f0404;}.cls-4{fill:#f5efee;}.cls-5{fill:#0e0404;}.cls-6{fill:#120606;}.cls-7{fill:#d26a68;}.cls-8{fill:#ce5a56;}</style></defs><title>olla_2</title><g id="Capa_2" data-name="Capa 2"><g id="Capa_1-2" data-name="Capa 1"><path class="cls-1" d="M48.07,124c9.12-3.74,18.76-2.45,28.15-2.46,48-.07,96,0,144,.49,18,.18,35.94,1.57,53.9,2.43,3,.14,6,.31,8.2,2.86a8.86,8.86,0,0,1,2.62,5.33c.24,10.25,10.69,7.33,15.35,11.88a2.84,2.84,0,0,1,.06,3.64c-18.42,1.47-18.29,1.49-20.8,19.92-4,29.34-15.73,54.6-39.11,73.78-5.62,4.61-11.27,7.54-18.86,7.58-21.53.11-43.06.87-64.59,1.38-7.51.18-15.36-.94-22.46.87-20.44,5.23-35-5-48.24-17.56-24.84-23.6-37.5-52.68-36.45-87.28-2.36-5.87-8.64-.82-11.86-4.25a4.44,4.44,0,0,1-.25-3.57,18.61,18.61,0,0,1,2.36-2.59c.35-.4.76-.8,1.1-1.21a7.35,7.35,0,0,0,.88-3,33,33,0,0,0-1.19-3.15c-.75-1.71-1.15-3.4-.06-5.09l0,.08C43.23,122.52,45.64,122.8,48.07,124Z"/><path class="cls-1" d="M49.74,117.32C59,98,70.15,82.49,89,74.17c20.23-8.92,40.82-17,63.07-19.16,5.88-.58,9.88-1.7,12.56-8.11,2.34-5.61,7.6-5.11,9,.81,1.25,5.3,3.69,6.28,8,6.55,6.51.4,13,.86,19.51,1.54C223.65,58.15,241,71.62,259,83.21c7.13,4.58,11.08,12.93,14.14,21,3.34,8.77,2,10.63-7.13,10.91-12.55.38-25.13,1.14-37.64.58-52.21-2.37-104.4-.42-156.6.23C64.94,116,58.08,116.76,49.74,117.32Z"/><path class="cls-2" d="M40.81,124l3.07,6.68c-5.62,5.19-12.9,2.75-19.69,4.42,4.84,1.49,10.49-.17,14,4.46,2.4,4.83,10.56.4,11.68,7.28-7.36-3.07-14.78-.82-22.12,0a49,49,0,0,1-22.07-2.34c-6.85-2.48-7.47-7.71-1.82-12.37,7.22-6,15.77-8.28,25.06-8.16C32.86,123.94,36.83,123.94,40.81,124Z"/><path class="cls-3" d="M246.1,12.1c-.44,1.12-.68,3.47-2,4.67-5.6,5.17-12.55,9-14.45,17.41-.34,1.51-3.2,2.51-5.29,1.54-3-1.41-5.14-4.81-4.17-7.25,2.8-7,2.34-14.58,4.51-21.57,1.6-5.14,6.1-6.47,11-5.15S245.31,5.12,246.1,12.1Z"/><path class="cls-4" d="M282.23,133.17l.08-5.88c10.43.1,20.88-.14,31.29.42,6.46.35,12.84,2,17,7.8,3,4.12,2.37,7.66-2.43,9.5a56.87,56.87,0,0,1-27.85,3.12q0-1.29,0-2.58c2.33-3.54,6.73-3.59,10.88-6.31C301.58,134.36,290.24,140.88,282.23,133.17Z"/><path class="cls-5" d="M56,28.65c4.74,0,7.8,1.71,9.87,4.66C69.18,38.07,70.1,44.15,75,48.23c2.55,2.11.56,5.85-1.43,8-2.32,2.56-6.62,2.63-7.91.17-3.21-6.12-10.19-6-14.32-10.09-2.89-2.89-5-6.31-3.43-10.74C49.46,31.43,52.89,29.64,56,28.65Z"/><path class="cls-6" d="M140.77,11.4a7.47,7.47,0,0,1-.39,2c-3.12,5.09,3.48,15.05-6.14,16.06-7.65.8-5.92-9.87-11.21-13.84-3.18-2.39-1.44-8.43,2-12,3-3.13,6.73-4.43,10.84-2.92C141.32,2.61,140.82,7.42,140.77,11.4Z"/><path class="cls-5" d="M292,53.26c.42,7.12-9.14,14.85-16.56,13.39-2.35-.46-3.93-2.61-3.32-4.22,1.92-5.06,2.68-10.81,7-14.72a8.06,8.06,0,0,1,8.41-1.56C290.8,47.29,291.66,50.15,292,53.26Z"/><path class="cls-2" d="M48.07,124l-7.23.09C43.22,121.69,45.63,122.14,48.07,124Z"/><path class="cls-7" d="M282.23,133.17c12.62,1.22,25.71-1.68,38.59,4.12-4.56,9.56-13.51,6.51-20.49,8.25-3.9-.51-7.79-1.33-11.7-1.46C280.48,143.81,279.87,139.43,282.23,133.17Z"/><path class="cls-8" d="M38.16,139.53c-8.42-1.19-17.24,2.5-28.52-1.88,12.29-8,23.13-8.14,34.25-7l-.08-.13c2.17,1.85,2.05,3.81.27,5.85l0,0a8.68,8.68,0,0,1-3.82,2.79L39.17,139Z"/><path class="cls-2" d="M44.07,136.36q-.13-2.93-.27-5.85C47.39,132.29,47.32,134.25,44.07,136.36Z"/><path class="cls-2" d="M40.3,139.1l3.82-2.79A4.2,4.2,0,0,1,40.3,139.1Z"/></g></g></svg>