<svg xmlns="http://www.w3.org/2000/svg" viewBox="0 0 329.95 230.7"><defs><style>.cls-1{fill:#fefefe;}.cls-2{fill:#fff;}.cls-3{fill:#f8c243;}.cls-4{fill:#e5d8d9;}.cls-5{fill:#cc524f;}.cls-6{fill:#cf5d5b;}</style></defs><title>olla_3</title><g id="Capa_2" data-name="Capa 2"><g id="Capa_1-2" data-name="Capa 1"><path class="cls-1" d="M277.45,117.26c-1.54,29.22-12.94,53.94-33.93,74.27A4.57,4.57,0,0,1,240,193.6c-5.35-.7-10.87-3-16,.54-8.56,6-16.65,10.91-25.9.59-2.39-2.66-6.75-.1-9.46,2.19-7.09,6-13.71,8.4-19.71-1.33-1-1.7-3.53-3.92-4.68-3.16-10.08,6.65-19.55,1.9-29.84.67-7.82-.94-16.19,8-25.5.15-1.9-1.61-4.8,6.24-9.75,4.91C72.33,179.59,55.37,154.7,50.58,122c-1.07-7.35-.28-16.66-4.48-21.44-5-5.71-14,.76-21.45.65-6.57-.1-13.11.08-19.21-2.66-7-3.13-7.26-7.44-.87-12.08a31.89,31.89,0,0,1,16.69-6.29c13-.92,26-2.63,39-2.65,60.26-.1,120.54-1.27,180.79.8,24,.82,47.85,3.33,71.76,5.17,6.16.47,12,2.2,15.72,7.6,2.72,3.91,1.37,6.54-3.16,7.66-3,2.07-5.53.72-8.08-.85-14.63-8-29.21-7.05-35,2.36C277,104.88,279.38,111.68,277.45,117.26Z"/><path class="cls-2" d="M49.66,72.19c11.56-25.69,28.4-40.05,51.45-48,16.61-5.71,33-13.28,50.65-13.06,10,.13,10.27-13.23,16.81-10.89,4.74,1.69,6.31,10.37,14.87,10,25.83-1,47.27,11,68.13,24.43,12.1,7.8,18.48,18.85,22,34.6C198.71,70,125.24,65.63,49.66,72.19Z"/><path class="cls-3" d="M99.23,198.16c.91-1.17,1.91-2.28,2.71-3.53,2.32-3.64,3.26-9.12,9-8.6s5.64,6.26,8.13,10.64C125.66,192.53,131.35,186,140,187c5.09.57,6.19,6,9.4,9.2,6.27-1.66,8.49-10.76,16-9.46,7.14,1.23,6.23,9.67,10.84,13.55,4.71.35,6.34-4.08,9.32-6.41,11.33-8.9,15.28-8.05,22.7,5.95,5.24-3.49,10.41-7,15.63-10.41,6.62-4.34,12.15-3.5,16.32,3.55,1.57,2.86,3.68,4.09,6.81,2.25,6-3.86,12.67-6,19.33-8.23,6.15-2,10.31.69,10.59,6.82.58,12.5-6.3,23-10.92,34-1.42,3.37-6.07,3-9.59,2.91-27-1-54,.73-81.2-1.6-25.33-2.17-51.14-2.79-76.61.89a18.31,18.31,0,0,1-15.26-4.36c-7.65-6.3-11.61-15-15.48-23.74-2.54-5.71,1.11-7.11,5.87-7.14,6.58,0,10.56,5.44,16.07,7.71C94.58,204.34,98.77,205.55,99.23,198.16Z"/><path class="cls-4" d="M277.45,117.26a26.36,26.36,0,0,1,3-19.4c12.71-6,25.8-4.55,38.94-2,1.4,2.24,3.83,2.31,6,2.87-9.46,5.35-20.18,3.6-30.27,4.93C281.59,105.46,281.48,104.63,277.45,117.26Z"/><path class="cls-5" d="M319.37,95.87c-12.73,5.55-25.92,2.07-38.94,2-1-5-2.38-10.5,5.47-10.32,9.29.21,18.57,1.16,27.85,1.8C317.82,89.62,320.16,91.41,319.37,95.87Z"/><path class="cls-6" d="M21.18,95.59c-3.47-.11-9.87,2-10.45-3.68-.53-5.28,6.2-4.85,10.18-6,6.18-1.78,12.44-3.48,18.89-1.49,1.9.58,3.56,2.06,3.15,4.29a5.54,5.54,0,0,1-2.3,3.5C34.85,95.45,28.37,95.49,21.18,95.59Z"/></g></g></svg>