<svg xmlns="http://www.w3.org/2000/svg" viewBox="0 0 332.3 231.9"><defs><style>.cls-1{fill:#fff;}.cls-2{fill:#f7f2f1;}.cls-3{fill:#f5eaea;}.cls-4{fill:#f4ba44;}.cls-5{fill:#f1b144;}.cls-6{fill:#f4b744;}.cls-7{fill:#f3b544;}.cls-8{fill:#f3b843;}.cls-9{fill:#efad45;}.cls-10{fill:#cd5c59;}.cls-11{fill:#d0615f;}</style></defs><title>olla_1</title><g id="Capa_2" data-name="Capa 2"><g id="Capa_1-2" data-name="Capa 1"><path class="cls-1" d="M316,108a2.57,2.57,0,0,1,2.54.31c-4.08,11.3-13.9,5.15-21.07,7-3.43.14-6.89-.37-10.27.23-3.93,1.32-2.84,3.84-1.47,6.43a5.51,5.51,0,0,1,.35,3.69c-5.71,2.82-4.88,8.67-6.28,13.48-1.24,34.66-15.5,62.69-42.57,84.4-4.66,3.73-9.45,5-15.2,5-21.08.1-42.16.58-63.25.76-9,.08-18.07-.3-27,1.68-11.51,2.55-21.75-.38-31.21-7C67,200.28,49.68,168.2,50.14,126.84c-.73-5.57-7.06-4-9.49-7.46a6.21,6.21,0,0,1,.39-3.48c.45-1.87-.4-3-2.16-3.66-4.67-.66-9.32.1-13.95-.45-3.54-1-8.11-.87-7.68-6.54a1.62,1.62,0,0,1,2.08-.41c7.1-2.85,14.89.77,22-2.32l6.09,0c2.1,1.59,4.11,1.57,6-.35,12.37-2.48,24.81-1.83,37.36-1.61,34,.6,68.08,0,102.11.41,27,.32,54.05,1.36,81.08,2.2,1.89.06,3.74,1.15,5.61,1.76C291.38,109.86,304.14,104,316,108Z"/><path class="cls-2" d="M17.25,105.25c2.33,3.62,6.23,2.64,9.58,3.28.24,3-3.87,4.87-3.57,5.62,1.25,3.05,3.84.19,5.89.2,4.41,0,8.95-1,12.22,3.16,2.27,3.72,10.1,2.21,8.76,9.32-4.55-5.05-10.06-2.72-15.28-1.85-9.39,1.57-18.74,2.18-27.82-1.32-8.69-3.36-9.36-8.16-1.92-13.64C8.67,107.41,12.4,104.77,17.25,105.25Z"/><path class="cls-3" d="M279.84,139.14c-1.66-6.47-.14-11.8,5.6-15.61,6.83-6.8,15.77-2.78,23.49-4.78-4.83-2.51-12.9,1.32-15-7.11,8.07-2.33,17.09,2.49,24.7-3.31,1.47.06,3.09-.25,4.4.24,4.89,1.83,9.77,5,9.29,10.39-.53,6-6.78,6.6-11.62,7.15-9.38,1.08-18.86,2.55-28.22,2.13C283.79,127.86,281.57,132.69,279.84,139.14Z"/><path class="cls-4" d="M145.38,0c6.17.48,11,6.92,10.13,13-.78,5.17-3.92,7.83-9.18,7.75-6.62-.1-12.68-6.72-11.49-12.8S140.85.72,145.38,0Z"/><path class="cls-5" d="M231,23.3c.26,5.48-3.48,9.45-9,9.37s-9.95-3.09-10.38-8.49c-.46-5.78,4.23-8.5,9.51-9.28S230.71,17.89,231,23.3Z"/><path class="cls-6" d="M124.56,89.16c-5.57-.45-11-5.94-10.21-10.61.89-5.2,4.8-7.4,9.46-7.73,4.37-.31,9.85,7,9.32,11.7C132.75,86,128.24,89.46,124.56,89.16Z"/><path class="cls-7" d="M175.16,37.8c2.83.53,4.52,2.43,4.14,5.1a68.86,68.86,0,0,1-7.11,22.29c-1.31,2.49-4.15,2.7-6,.07-3-4.26,2.79-24.38,7.55-27A8.25,8.25,0,0,1,175.16,37.8Z"/><path class="cls-8" d="M248.54,80.5c-.17,2.42-2,3.92-3.86,3.38-8.13-2.34-15.66-6-21.26-12.58-2-2.3-.79-5,1.7-6.08C229.69,63.17,248.05,75.35,248.54,80.5Z"/><path class="cls-9" d="M100.29,36.58c-.54,1.51-.62,2.65-1.23,3.27C94.21,44.77,89.6,50,83.49,53.42a5.75,5.75,0,0,1-6.95-.65C74.11,50.34,76,48,77.76,46.49c4.92-4.12,10-8.06,15.25-11.77C96.12,32.52,98.39,34.36,100.29,36.58Z"/><path class="cls-3" d="M316,108c-8.7.1-17.4.23-26.09.29-3.82,0-7.87.58-10.38-3.44C291.62,107.07,304.26,102.56,316,108Z"/><path class="cls-2" d="M41.3,102.51c-6.87,5-14.58,2.14-22,2.32C26.33,100.93,33.87,102.28,41.3,102.51Z"/><path class="cls-2" d="M53.41,102.12c-1.84,3-3.84,3.24-6,.35Z"/><path class="cls-10" d="M293.88,111.64c8.26,4.12,17.9-.24,26.55,4.36-1.06,6.66-6.23,6.85-11.13,7-7.95.31-15.91.34-23.86.48a3.16,3.16,0,0,0-2.16-.53c-3.4-3.84-3.45-7.67,0-11.49Z"/><path class="cls-11" d="M41.38,117.51c-9.51-.88-19.19,4.4-29.7.21,3.25-8.11,11.2-5.23,15.15-9.19l16.2.08c3.92,2.73,3.85,5.49.07,8.28A1.54,1.54,0,0,0,41.38,117.51Z"/><path class="cls-3" d="M283.32,111.52c-2,3.82-1.53,7.65,0,11.49C277.95,119.17,277.73,115.34,283.32,111.52Z"/><path class="cls-2" d="M43.1,116.89a9.49,9.49,0,0,0-.06-8.28C49.21,111.32,49.13,114.08,43.1,116.89Z"/></g></g></svg>
