<svg xmlns="http://www.w3.org/2000/svg" viewBox="0 0 62.86 50.25"><defs><style>.cls-1{fill:#070606;}.cls-2{fill:#f4bf42;}</style></defs><title>search_button</title><g id="Capa_2" data-name="Capa 2"><g id="Capa_1-2" data-name="Capa 1"><path class="cls-1" d="M32.1.07c6.24,0,12.49-.2,18.71.05,7.89.32,11.52,3.62,11.8,11.21.33,9.14.32,18.31,0,27.44C62.37,46.49,58.88,49.9,51,50.05q-19.33.38-38.68,0C3.9,49.87.49,46.28.21,37.71c-.27-8.31-.28-16.64,0-25C.5,3.79,4.14.4,13.39.11,19.62-.09,25.87.07,32.1.07Z"/><path class="cls-2" d="M33.06,40.6c-1.66,0-3.33,0-5,0C15.17,40.38,11.15,37,9.92,24.13c-.44-4.6-3-12.49,7.39-8.22,1.9.78,2.42-1.64,3.41-2.83,2.49-3,5.16-2.39,7.31.26s3.54,4.53,6.14.55c2-3.13,4.67-5.14,7.8-1.06,1.25,1.63,2.64,1.14,4.32,1.1,7.95-.18,9.22,1.19,9,8.43-.13,4.71-2.45,8.77-3.63,13.17-1,3.73-3.51,5.35-7.4,5.19s-7.49,0-11.23,0Z"/></g></g></svg>